<svg width="11" height="8" viewBox="0 0 11 8" fill="none" xmlns="http://www.w3.org/2000/svg">
<path d="M10.2389 3.99972C10.2357 3.64898 10.0933 3.31365 9.84265 3.06639L6.96131 0.199721C6.83547 0.075554 6.66524 0.00585938 6.4878 0.00585938C6.31037 0.00585938 6.14014 0.075554 6.0143 0.199721C5.95134 0.261697 5.90138 0.335431 5.86728 0.41667C5.83318 0.49791 5.81563 0.585047 5.81563 0.673055C5.81563 0.761063 5.83318 0.848199 5.86728 0.929439C5.90138 1.01068 5.95134 1.08441 6.0143 1.14639L8.224 3.33305H1.50758C1.32945 3.33305 1.15861 3.40329 1.03266 3.52832C0.9067 3.65334 0.835938 3.82291 0.835938 3.99972C0.835938 4.17653 0.9067 4.3461 1.03266 4.47113C1.15861 4.59615 1.32945 4.66639 1.50758 4.66639H8.224L6.0143 6.85972C5.88782 6.98437 5.81642 7.15379 5.81579 7.3307C5.81516 7.50761 5.88536 7.67752 6.01094 7.80306C6.13652 7.92859 6.3072 7.99947 6.48543 8.00009C6.66366 8.00072 6.83484 7.93104 6.96131 7.80639L9.84265 4.93972C10.0949 4.69082 10.2374 4.35277 10.2389 3.99972Z" fill="#8DD563"/>
</svg>
