<svg width="18" height="8" viewBox="0 0 18 8" fill="none" xmlns="http://www.w3.org/2000/svg">
<path d="M0.0586342 4.00028C0.0619033 4.35101 0.204275 4.68635 0.454903 4.93361L3.33625 7.80028C3.46209 7.92444 3.63232 7.99414 3.80976 7.99414C3.9872 7.99414 4.15742 7.92444 4.28327 7.80028C4.34622 7.7383 4.39618 7.66457 4.43028 7.58333C4.46438 7.50209 4.48194 7.41495 4.48194 7.32694C4.48194 7.23894 4.46438 7.1518 4.43028 7.07056C4.39618 6.98932 4.34622 6.91559 4.28327 6.85361L2.07356 4.66694L16.682 4.66695C16.8602 4.66695 17.031 4.59671 17.157 4.47168C17.2829 4.34666 17.3537 4.17709 17.3537 4.00028C17.3537 3.82347 17.2829 3.6539 17.157 3.52887C17.031 3.40385 16.8602 3.33361 16.682 3.33361L2.07356 3.33361L4.28327 1.14028C4.40974 1.01563 4.48114 0.846211 4.48177 0.669302C4.4824 0.492392 4.41221 0.322481 4.28662 0.196945C4.16104 0.0714086 3.99036 0.000531468 3.81213 -9.36815e-05C3.6339 -0.00071883 3.46272 0.0689595 3.33625 0.193611L0.454903 3.06028C0.202643 3.30918 0.0601334 3.64723 0.0586342 4.00028Z" fill="#8DD563"/>
</svg>
