<svg width="25" height="8" viewBox="0 0 25 8" fill="none" xmlns="http://www.w3.org/2000/svg">
<path d="M0.0586342 4.00028C0.0619033 4.35101 0.204275 4.68635 0.454903 4.93361L3.33625 7.80028C3.46209 7.92444 3.63232 7.99414 3.80976 7.99414C3.9872 7.99414 4.15742 7.92444 4.28327 7.80028C4.34622 7.7383 4.39618 7.66457 4.43028 7.58333C4.46438 7.50209 4.48194 7.41495 4.48194 7.32694C4.48194 7.23894 4.46438 7.1518 4.43028 7.07056C4.39618 6.98932 4.34622 6.91559 4.28327 6.85361L2.07356 4.66694L16.682 4.66695C16.8602 4.66695 17.031 4.59671 17.157 4.47168C17.2829 4.34666 17.3537 4.17709 17.3537 4.00028C17.3537 3.82347 17.2829 3.6539 17.157 3.52887C17.031 3.40385 16.8602 3.33361 16.682 3.33361L2.07356 3.33361L4.28327 1.14028C4.40974 1.01563 4.48114 0.846211 4.48177 0.669302C4.4824 0.492392 4.41221 0.322481 4.28662 0.196945C4.16104 0.0714086 3.99036 0.000531468 3.81213 -9.36815e-05C3.6339 -0.00071883 3.46272 0.0689595 3.33625 0.193611L0.454903 3.06028C0.202643 3.30918 0.0601334 3.64723 0.0586342 4.00028Z" fill="#8DD563"/>
<path d="M24.2389 3.99972C24.2357 3.64898 24.0933 3.31365 23.8427 3.06639L20.9613 0.199721C20.8355 0.075554 20.6652 0.00585938 20.4878 0.00585938C20.3104 0.00585938 20.1401 0.075554 20.0143 0.199721C19.9513 0.261697 19.9014 0.335431 19.8673 0.41667C19.8332 0.49791 19.8156 0.585047 19.8156 0.673055C19.8156 0.761063 19.8332 0.848199 19.8673 0.929439C19.9014 1.01068 19.9513 1.08441 20.0143 1.14639L22.224 3.33305H15.5076C15.3294 3.33305 15.1586 3.40329 15.0327 3.52832C14.9067 3.65334 14.8359 3.82291 14.8359 3.99972C14.8359 4.17653 14.9067 4.3461 15.0327 4.47113C15.1586 4.59615 15.3294 4.66639 15.5076 4.66639H22.224L20.0143 6.85972C19.8878 6.98437 19.8164 7.15379 19.8158 7.3307C19.8152 7.50761 19.8854 7.67752 20.0109 7.80306C20.1365 7.92859 20.3072 7.99947 20.4854 8.00009C20.6637 8.00072 20.8348 7.93104 20.9613 7.80639L23.8427 4.93972C24.0949 4.69082 24.2374 4.35277 24.2389 3.99972Z" fill="#8DD563"/>
</svg>
