<svg width="24" height="24" viewBox="0 0 24 24" fill="none" xmlns="http://www.w3.org/2000/svg">
<g clip-path="url(#clip0_186_2455)">
<path d="M21.4494 13.864L12.7774 22.536C11.839 23.4722 10.5675 23.9979 9.24193 23.9979C7.91635 23.9979 6.64489 23.4722 5.70643 22.536L1.46443 18.293C0.526771 17.3553 0 16.0835 0 14.7575C0 13.4314 0.526771 12.1597 1.46443 11.222L7.36443 5.32199L4.51043 2.42899C4.40803 2.33804 4.3254 2.22702 4.26767 2.10283C4.20993 1.97863 4.17833 1.8439 4.17481 1.70698C4.17129 1.57007 4.19594 1.43389 4.24721 1.30689C4.29849 1.17989 4.37531 1.06478 4.47291 0.968697C4.5705 0.872609 4.6868 0.797595 4.81458 0.748303C4.94236 0.699011 5.07891 0.676494 5.21575 0.682146C5.35259 0.687799 5.48682 0.721501 5.6101 0.781163C5.73338 0.840826 5.84309 0.925176 5.93243 1.02899L14.9024 10.11L14.9114 10.123C15.1037 10.295 15.3553 10.3856 15.6131 10.3757C15.8709 10.3658 16.1148 10.2561 16.2933 10.0699C16.4718 9.88357 16.571 9.63523 16.5699 9.37723C16.5688 9.11924 16.4675 8.87175 16.2874 8.68699L9.07743 1.38699C8.9879 1.17333 8.97532 0.935208 9.04185 0.713305C9.10838 0.491402 9.24989 0.299482 9.44221 0.170326C9.63452 0.0411702 9.86572 -0.0172078 10.0963 0.00516359C10.3269 0.027535 10.5425 0.129268 10.7064 0.292985L23.7064 13.293C23.8019 13.3852 23.8781 13.4956 23.9305 13.6176C23.9829 13.7396 24.0105 13.8708 24.0117 14.0036C24.0128 14.1364 23.9875 14.268 23.9373 14.3909C23.887 14.5138 23.8127 14.6255 23.7188 14.7194C23.6249 14.8133 23.5133 14.8875 23.3904 14.9378C23.2675 14.9881 23.1358 15.0134 23.003 15.0122C22.8703 15.0111 22.739 14.9835 22.617 14.9311C22.495 14.8787 22.3847 14.8025 22.2924 14.707L21.4494 13.864ZM20.6914 18.431C19.9604 19.492 18.9994 20.725 18.9994 21.5C18.9994 22.163 19.2628 22.7989 19.7317 23.2678C20.2005 23.7366 20.8364 24 21.4994 24C22.1625 24 22.7984 23.7366 23.2672 23.2678C23.736 22.7989 23.9994 22.163 23.9994 21.5C23.9994 20.651 23.0544 19.456 22.3264 18.422C22.2334 18.2915 22.1104 18.1852 21.9677 18.1122C21.825 18.0392 21.6669 18.0015 21.5066 18.0024C21.3463 18.0033 21.1886 18.0427 21.0467 18.1173C20.9049 18.1919 20.783 18.2994 20.6914 18.431Z" fill="#0E0E0E"/>
</g>
<defs>
<clipPath id="clip0_186_2455">
<rect width="24" height="24" fill="white"/>
</clipPath>
</defs>
</svg>
