<svg width="24" height="24" viewBox="0 0 24 24" fill="none" xmlns="http://www.w3.org/2000/svg">
<g clip-path="url(#clip0_99_45)">
<path d="M22.243 5.272L18.728 1.757C17.594 0.624 16.087 0 14.485 0H9.51402C7.91202 0 6.40502 0.624 5.27102 1.757L1.75602 5.272C0.623024 6.406 -0.000976562 7.913 -0.000976562 9.515V14.486C-0.000976562 16.088 0.623024 17.595 1.75602 18.729L5.27102 22.244C6.40502 23.377 7.91202 24.001 9.51402 24.001H14.485C16.087 24.001 17.594 23.377 18.728 22.244L22.243 18.729C23.376 17.595 24 16.088 24 14.486V9.515C24 7.913 23.376 6.406 22.243 5.272ZM18.333 9.833L13.101 15.065C12.488 15.678 11.673 16.016 10.806 16.016C9.93902 16.016 9.12402 15.678 8.51102 15.065L5.72402 12.278C5.33302 11.887 5.33302 11.255 5.72402 10.864C6.11502 10.473 6.74702 10.473 7.13802 10.864L9.92502 13.651C10.396 14.122 11.217 14.121 11.687 13.651L16.919 8.419C17.31 8.028 17.942 8.028 18.333 8.419C18.724 8.81 18.724 9.442 18.333 9.833Z" fill="#8DD563"/>
</g>
<defs>
<clipPath id="clip0_99_45">
<rect width="24" height="24" fill="white"/>
</clipPath>
</defs>
</svg>
