<svg width="100" height="100" viewBox="0 0 100 100" fill="none" xmlns="http://www.w3.org/2000/svg">
<circle cx="50" cy="50" r="50" fill="white" fill-opacity="0.3"/>
<circle cx="50" cy="50" r="41" fill="#8DD563"/>
<path d="M40.725 33.1742C39.6381 33.364 38.517 34.1937 38.0453 35.171C37.6215 36.0359 37.6488 35.1007 37.6488 50C37.6488 64.8992 37.6215 63.964 38.0453 64.8359C38.2709 65.307 38.8382 65.9468 39.2963 66.2492C40.3832 66.9664 41.8256 67.0578 42.9398 66.4812C43.1312 66.3828 47.5062 63.296 52.6673 59.6257C62.5726 52.5664 62.5521 52.5804 62.9554 51.7578C63.4818 50.6749 63.4818 49.3531 62.9691 48.2562C62.5795 47.4335 62.5863 47.4406 52.6673 40.3742C47.5062 36.7039 43.1312 33.6171 42.9398 33.5187C42.3177 33.1953 41.4086 33.0546 40.725 33.1742Z" fill="#0E0E0E"/>
</svg>
