<svg width="24" height="24" viewBox="0 0 24 24" fill="none" xmlns="http://www.w3.org/2000/svg">
<g clip-path="url(#clip0_159_449)">
<path d="M1.68789 0.0328131C1.61758 0.046876 1.28008 0.346875 0.811329 0.810938C0.103517 1.51875 0.0519541 1.58438 0.0238291 1.78594C0.000391554 1.93125 0.0144541 2.04844 0.0613291 2.16094C0.164454 2.40469 2.76133 6.57656 2.86914 6.66563C2.9207 6.7125 3.03789 6.75 3.12227 6.75C3.2582 6.75 3.34258 6.69375 3.66133 6.38906L4.03633 6.02813L6.27227 8.26406L8.5082 10.5L9.50664 9.50625L10.5004 8.50781L8.26445 6.27188L6.02852 4.03594L6.38945 3.66094C6.69414 3.34219 6.75039 3.25781 6.75039 3.12188C6.75039 3.0375 6.71289 2.92031 6.6707 2.86875C6.57695 2.76094 2.40977 0.164063 2.1707 0.0609379C2.0207 9.53674e-07 1.9082 -0.00468731 1.68789 0.0328131Z" fill="#8DD563"/>
<path d="M19.2425 0.0469284C17.7753 0.253178 16.566 1.13911 15.9613 2.4563C15.6238 3.18287 15.4972 4.10162 15.6238 4.89849L15.6941 5.32037L10.505 10.5094L5.32064 15.6985L5.08627 15.6469C4.68783 15.5626 3.63314 15.5766 3.28158 15.6704C2.58314 15.8626 2.08158 16.1063 1.60345 16.486C0.323767 17.4985 -0.234046 19.1157 0.122204 20.7563C0.206579 21.136 0.333142 21.2813 0.576892 21.2813C0.698767 21.2813 0.830017 21.1688 1.47689 20.5313L2.23158 19.7813H3.22533H4.21908V20.7751V21.7688L3.46908 22.5235C2.65345 23.3438 2.60658 23.4235 2.81283 23.686C3.03783 23.9719 4.46283 24.0797 5.24564 23.8688C6.51127 23.5266 7.5097 22.6876 8.06283 21.511C8.37689 20.8313 8.50345 19.8891 8.37689 19.1016L8.30658 18.6797L13.4956 13.4907L18.68 8.30162L18.9144 8.35318C19.3128 8.43755 20.3675 8.42349 20.7191 8.32974C21.8488 8.02037 22.6831 7.4438 23.2831 6.56255C23.9019 5.64849 24.141 4.36411 23.8878 3.2813C23.7847 2.84068 23.6816 2.7188 23.4097 2.7188C23.3066 2.7188 23.1331 2.86411 22.5238 3.4688L21.7691 4.2188H20.7753H19.7816V3.22505V2.2313L20.5316 1.47662C21.1691 0.829741 21.2816 0.69849 21.2816 0.576614C21.2816 0.337553 21.1316 0.201614 20.7753 0.121927C20.3722 0.0328655 19.6081 -0.00463486 19.2425 0.0469284Z" fill="#8DD563"/>
<path d="M14.5781 14.6485L12.3047 16.9219L12.4547 17.2172C12.5344 17.3813 12.7031 17.6391 12.825 17.7891C12.9516 17.9438 14.2172 19.2235 15.6328 20.6297C17.5125 22.4953 18.3 23.25 18.5391 23.4047C18.9 23.6344 19.2938 23.8125 19.6922 23.911C20.0203 23.9953 20.9484 23.9953 21.2766 23.911C22.5891 23.5781 23.5781 22.5891 23.9109 21.2766C23.9953 20.9485 23.9953 20.0203 23.9109 19.6922C23.8125 19.3031 23.6344 18.9 23.4188 18.5625C23.2781 18.3469 22.4578 17.4985 20.6438 15.6938C19.2281 14.2828 17.9344 13.0219 17.7703 12.8906C17.5031 12.6797 16.9875 12.375 16.8891 12.375C16.8656 12.375 15.8297 13.3969 14.5781 14.6485ZM17.3484 16.4672C17.4422 16.5235 18.3234 17.3625 19.3031 18.3281C21.2953 20.2922 21.2812 20.2735 21.1219 20.6953C21.0281 20.9344 20.8781 21.0703 20.6344 21.1406C20.2594 21.2438 20.2406 21.2297 18.3094 19.3266C17.325 18.3563 16.4766 17.4891 16.4203 17.3953C16.2844 17.1844 16.2844 16.9641 16.4109 16.7344C16.6078 16.3875 17.025 16.2656 17.3484 16.4672Z" fill="#8DD563"/>
</g>
<defs>
<clipPath id="clip0_159_449">
<rect width="24" height="24" fill="white"/>
</clipPath>
</defs>
</svg>
