<svg width="24" height="24" viewBox="0 0 24 24" fill="none" xmlns="http://www.w3.org/2000/svg">
<path d="M9.23438 1.21406V2.42812L8.73281 2.60156C8.45156 2.69531 7.99688 2.88281 7.71094 3.02344L7.19531 3.27187L6.32813 2.40937L5.46094 1.54688L3.50156 3.50625L1.54688 5.46094L2.40938 6.32344L3.27188 7.18125L3.02344 7.70625C2.8875 7.99219 2.69531 8.45156 2.60156 8.72812L2.42813 9.23437H1.21406H0V12V14.7656H1.21406H2.42813L2.60156 15.2672C2.69531 15.5484 2.8875 16.0078 3.02344 16.2937L3.27188 16.8187L2.40938 17.6766L1.54688 18.5391L3.50156 20.4937L5.46094 22.4531L6.32813 21.5906L7.19531 20.7234L7.51875 20.8922C7.87031 21.0703 8.49375 21.3281 8.57344 21.3281C8.61094 21.3281 8.625 20.7656 8.625 19.4391V17.55L8.26406 17.2969C6.95625 16.3641 6.01406 14.8969 5.68594 13.275C5.55469 12.6328 5.56875 11.3719 5.70938 10.7391C6.12188 8.90156 7.23281 7.3875 8.84063 6.47812C9.15469 6.29531 10.3641 5.76562 10.4578 5.76562C10.4813 5.76562 10.5 6.87656 10.5 8.55V11.3391L11.25 11.7891L12 12.2391L12.75 11.7891L13.5 11.3391V8.55C13.5 6.5625 13.5141 5.76562 13.5516 5.76562C13.65 5.76562 14.9016 6.31875 15.2156 6.50625C16.275 7.125 17.1562 8.04844 17.7047 9.11719C18 9.69844 18.15 10.1062 18.2906 10.7391C18.4313 11.3719 18.4453 12.6328 18.3141 13.275C18.1313 14.175 17.7141 15.1406 17.2031 15.8437C16.8422 16.3359 16.1578 17.0156 15.7406 17.2969L15.4266 17.5078L15.4219 19.4156C15.4219 20.5922 15.4406 21.3281 15.4641 21.3281C15.525 21.3281 16.2703 21.0047 16.5703 20.8453L16.8047 20.7234L17.6719 21.5906L18.5391 22.4531L20.4984 20.4937L22.4531 18.5391L21.5906 17.6766L20.7281 16.8187L20.9766 16.2937C21.1125 16.0078 21.3047 15.5484 21.3984 15.2672L21.5719 14.7656H22.7859H24V12V9.23437H22.7859H21.5719L21.3984 8.72812C21.3047 8.45156 21.1125 7.99219 20.9766 7.70625L20.7281 7.18125L21.5906 6.32344L22.4531 5.46094L20.4984 3.50625L18.5391 1.54688L17.6719 2.40937L16.8047 3.27187L16.3031 3.02812C16.0312 2.89219 15.5719 2.70469 15.2859 2.60625L14.7656 2.42812V1.21406V0H12H9.23438V1.21406Z" fill="#8DD563"/>
<path d="M8.72363 8.27344C7.95488 8.93437 7.40645 9.82031 7.13926 10.8187C7.02676 11.2266 7.0127 11.3578 7.0127 12.0703C7.0127 12.7828 7.02676 12.9141 7.13926 13.3219C7.50488 14.6812 8.34395 15.7594 9.60957 16.4859L10.008 16.7156L10.0221 20.3578L10.0314 24H12.0236H14.0158V20.3484V16.6969L14.358 16.5094C15.6049 15.8203 16.4955 14.6906 16.8611 13.3219C16.9736 12.9141 16.9877 12.7828 16.9877 12.0703C16.9877 11.3578 16.9736 11.2266 16.8611 10.8187C16.5939 9.81562 16.0268 8.90156 15.2721 8.25937C15.1127 8.12812 14.9627 8.01562 14.9439 8.01562C14.9252 8.01562 14.9064 8.94375 14.9064 10.0734V12.1359L13.4533 13.0078L12.0002 13.8797L10.5471 13.0031L9.09395 12.1266V10.0734C9.09395 8.93906 9.0752 8.01562 9.05645 8.01562C9.03301 8.01562 8.88301 8.13281 8.72363 8.27344Z" fill="#8DD563"/>
</svg>
