<svg width="24" height="24" viewBox="0 0 24 24" fill="none" xmlns="http://www.w3.org/2000/svg">
<path d="M12.9437 0.254979C13.0054 0.277982 13.0671 0.300984 13.1307 0.324683C13.2985 0.387274 13.4661 0.45053 13.6336 0.513917C13.8105 0.580726 13.9877 0.646912 14.1648 0.713187C14.6036 0.877584 15.0421 1.04317 15.4804 1.20902C15.5147 1.22199 15.549 1.23496 15.5843 1.24832C16.1916 1.47802 16.7987 1.70813 17.4055 1.939C18.192 2.23806 18.9795 2.53335 19.7699 2.82111C20.2682 3.00313 20.7629 3.19428 21.257 3.38768C21.3275 3.41521 21.3979 3.44274 21.4683 3.47027C21.6391 3.53702 21.8099 3.60381 21.9806 3.67063C21.9843 4.89318 21.987 6.11572 21.9887 7.33827C21.9895 7.90603 21.9906 8.47379 21.9924 9.04154C21.994 9.53691 21.995 10.0323 21.9953 10.5276C21.9955 10.7895 21.996 11.0513 21.9971 11.3131C22.0059 13.3978 22.0059 13.3978 21.8246 14.3198C21.814 14.3782 21.8035 14.4367 21.7926 14.4969C21.7688 14.6252 21.7413 14.7515 21.7109 14.8783C21.7001 14.9238 21.6892 14.9692 21.6781 15.0161C21.2767 16.6311 20.5131 18.1573 19.4325 19.4035C19.3878 19.4553 19.3431 19.5072 19.2971 19.5605C18.8064 20.1226 18.2955 20.6496 17.7165 21.116C17.6653 21.1583 17.6141 21.2005 17.5613 21.2441C16.1624 22.3883 14.5009 23.2576 12.8121 23.8451C12.7456 23.8685 12.7456 23.8685 12.6777 23.8923C11.5471 24.2727 10.2777 23.5633 9.26623 23.0391C9.16827 22.9869 9.07069 22.9341 8.97331 22.8808C8.87398 22.8272 8.77373 22.7759 8.67308 22.7249C5.91637 21.307 3.53812 18.8291 2.54177 15.7947C2.42017 15.409 2.31922 15.019 2.22976 14.6241C2.21961 14.5795 2.20947 14.5349 2.19902 14.4889C2.0383 13.7348 1.99677 12.993 2.00019 12.2244C2.00022 12.1304 2.0002 12.0365 2.00015 11.9425C2.00012 11.6902 2.00072 11.438 2.00145 11.1857C2.00211 10.9211 2.00217 10.6564 2.00229 10.3917C2.00261 9.89176 2.00346 9.39183 2.00451 8.8919C2.00568 8.32221 2.00624 7.75251 2.00677 7.18282C2.00785 6.01209 2.00968 4.84136 2.012 3.67063C3.33961 3.15667 3.33961 3.15667 3.93748 2.93566C4.05547 2.89186 4.17345 2.84805 4.29144 2.80424C4.35155 2.78196 4.41165 2.75967 4.47358 2.73671C4.80307 2.61451 5.13245 2.49202 5.46178 2.36938C5.49556 2.3568 5.52934 2.34422 5.56415 2.33126C6.24365 2.07812 6.92179 1.82123 7.59964 1.56344C7.96503 1.42458 8.33063 1.28629 8.6962 1.14792C9.0652 1.00814 9.43381 0.867323 9.80221 0.725905C10.0428 0.63378 10.2837 0.542496 10.5247 0.451413C10.6378 0.408464 10.7508 0.365159 10.8636 0.321474C11.0187 0.26144 11.1743 0.202678 11.33 0.14419C11.3751 0.126416 11.4201 0.108641 11.4665 0.0903282C12.0075 -0.109272 12.4216 0.0562433 12.9437 0.254979ZM16.2583 8.15483C16.2143 8.20021 16.1702 8.2456 16.1249 8.29235C16.1004 8.31748 16.0759 8.34261 16.0506 8.3685C15.9681 8.4533 15.8859 8.53847 15.8037 8.62364C15.7448 8.6843 15.6858 8.74492 15.6269 8.80553C15.4665 8.97058 15.3064 9.13596 15.1463 9.3014C14.9792 9.47407 14.8117 9.64644 14.6443 9.81884C14.3272 10.1456 14.0103 10.4725 13.6935 10.7996C13.3329 11.1719 12.972 11.5439 12.6111 11.9158C11.8685 12.6811 11.1263 13.4468 10.3843 14.2128C10.1922 14.1201 10.0691 14.0084 9.91874 13.8529C9.89385 13.8273 9.86897 13.8017 9.84333 13.7753C9.76149 13.691 9.68002 13.6064 9.59855 13.5217C9.54174 13.463 9.48491 13.4044 9.42806 13.3458C9.27873 13.1917 9.12972 13.0373 8.98078 12.8828C8.82864 12.7252 8.6762 12.5678 8.52378 12.4104C8.22496 12.1018 7.92646 11.7928 7.62818 11.4836C7.45008 11.5701 7.33401 11.6668 7.1951 11.8118C7.15354 11.8549 7.11198 11.898 7.06916 11.9424C7.02626 11.9875 6.98336 12.0325 6.93915 12.0789C6.89545 12.1244 6.85174 12.1698 6.80671 12.2167C6.69895 12.3288 6.59144 12.4412 6.48414 12.5538C6.5521 12.7081 6.6244 12.8185 6.74082 12.9379C6.77203 12.9701 6.80323 13.0024 6.83539 13.0356C6.86954 13.0704 6.90369 13.1052 6.93887 13.141C6.9749 13.1781 7.01093 13.2151 7.04805 13.2534C7.1671 13.3758 7.28652 13.4979 7.40595 13.6199C7.4886 13.7048 7.57123 13.7897 7.65384 13.8746C7.87127 14.0979 8.089 14.3209 8.30681 14.5439C8.52903 14.7715 8.75095 14.9993 8.97291 15.2272C9.4084 15.6742 9.84423 16.1209 10.2803 16.5673C10.487 16.4816 10.6259 16.3334 10.7798 16.1732C10.8086 16.1436 10.8375 16.114 10.8672 16.0835C10.9638 15.9843 11.0601 15.8846 11.1563 15.785C11.2255 15.7138 11.2947 15.6426 11.3639 15.5714C11.5518 15.3781 11.7394 15.1844 11.9269 14.9907C12.123 14.7883 12.3193 14.5862 12.5155 14.3841C12.8872 14.0013 13.2586 13.6182 13.6299 13.235C14.0527 12.7988 14.4757 12.3629 14.8987 11.927C15.769 11.0304 16.6388 10.1333 17.5085 9.23601C17.4249 9.0543 17.3318 8.93335 17.1932 8.79035C17.1518 8.74758 17.1104 8.70481 17.0677 8.66075C17.0244 8.6166 16.9811 8.57245 16.9365 8.52696C16.8932 8.48199 16.8499 8.43701 16.8052 8.39067C16.7638 8.34818 16.7224 8.30569 16.6797 8.2619C16.6417 8.22291 16.6037 8.18392 16.5645 8.14375C16.426 8.02118 16.3949 8.03116 16.2583 8.15483Z" fill="#8DD563"/>
</svg>
