<svg width="24" height="24" viewBox="0 0 24 24" fill="none" xmlns="http://www.w3.org/2000/svg">
<g clip-path="url(#clip0_186_2453)">
<path d="M12 0C8.81846 0.00344108 5.76821 1.26883 3.51852 3.51852C1.26883 5.76821 0.00344108 8.81846 0 12C0.6 27.9 23.4 27.893 24 12C23.9966 8.81846 22.7312 5.76821 20.4815 3.51852C18.2318 1.26883 15.1815 0.00344108 12 0ZM12 2C14.0069 2.00217 15.9669 2.60768 17.6253 3.73791C19.2837 4.86814 20.564 6.47087 21.3 8.338L14.024 9.793C12.641 10.069 11.217 10.069 9.834 9.793L2.694 8.365C3.42617 6.49195 4.7056 4.88289 6.36554 3.74755C8.02548 2.61221 9.98893 2.00323 12 2ZM2 12.107L6.155 12.938C6.73073 13.0532 7.27405 13.2937 7.74638 13.6424C8.21872 13.9912 8.60848 14.4397 8.888 14.956L9.513 16.109C9.82853 16.6926 9.99415 17.3455 9.995 18.009V21.8C7.75719 21.3383 5.74455 20.1252 4.29118 18.3621C2.83781 16.5989 2.03112 14.3918 2.005 12.107H2ZM14 21.8V18.013C14.0008 17.3495 14.1665 16.6966 14.482 16.113L15.107 14.96C15.3865 14.4437 15.7763 13.9952 16.2486 13.6464C16.7209 13.2977 17.2643 13.0572 17.84 12.942L22 12.107C21.9734 14.3932 21.1653 16.6014 19.7099 18.3648C18.2546 20.1281 16.2397 21.3403 14 21.8Z" fill="#0E0E0E"/>
</g>
<defs>
<clipPath id="clip0_186_2453">
<rect width="24" height="24" fill="white"/>
</clipPath>
</defs>
</svg>
