<svg width="24" height="24" viewBox="0 0 24 24" fill="none" xmlns="http://www.w3.org/2000/svg">
<g clip-path="url(#clip0_102_186)">
<path d="M14 10.9999V18.9999H5V10.9999H14ZM24 10.9999V18.9999C24 21.7569 21.757 23.9999 19 23.9999H5C2.243 23.9999 0 21.7569 0 18.9999V10.9999C0 8.24291 2.243 5.99991 5 5.99991H9.865L6.232 1.63991C5.878 1.21591 5.936 0.584909 6.36 0.231909C6.784 -0.122091 7.414 -0.0640909 7.768 0.359909L12 5.43791L16.232 0.359909C16.586 -0.0640909 17.216 -0.121091 17.64 0.231909C18.064 0.584909 18.121 1.21591 17.768 1.63991L14.135 5.99991H19C21.757 5.99991 24 8.24291 24 10.9999ZM16 10.9999C16 9.89691 15.103 8.99991 14 8.99991H5C3.897 8.99991 3 9.89691 3 10.9999V18.9999C3 20.1029 3.897 20.9999 5 20.9999H14C15.103 20.9999 16 20.1029 16 18.9999V10.9999ZM21.5 17.4999C21.5 16.6719 20.828 15.9999 20 15.9999C19.172 15.9999 18.5 16.6719 18.5 17.4999C18.5 18.3279 19.172 18.9999 20 18.9999C20.828 18.9999 21.5 18.3279 21.5 17.4999ZM21.5 12.4999C21.5 11.6719 20.828 10.9999 20 10.9999C19.172 10.9999 18.5 11.6719 18.5 12.4999C18.5 13.3279 19.172 13.9999 20 13.9999C20.828 13.9999 21.5 13.3279 21.5 12.4999Z" fill="#8DD563"/>
</g>
<defs>
<clipPath id="clip0_102_186">
<rect width="24" height="24" fill="white"/>
</clipPath>
</defs>
</svg>
