<svg width="16" height="16" viewBox="0 0 16 16" fill="none" xmlns="http://www.w3.org/2000/svg">
<path opacity="0.991" fill-rule="evenodd" clip-rule="evenodd" d="M7.29688 -0.015625C7.75522 -0.015625 8.21353 -0.015625 8.67188 -0.015625C11.8052 0.376275 14.0396 2.00128 15.375 4.85938C15.6967 5.64638 15.8999 6.45888 15.9844 7.29688C15.9844 7.75522 15.9844 8.21353 15.9844 8.67188C15.5925 11.8052 13.9675 14.0396 11.1094 15.375C10.3224 15.6967 9.50988 15.8999 8.67188 15.9844C8.21353 15.9844 7.75522 15.9844 7.29688 15.9844C6.00216 15.858 4.80422 15.4465 3.70312 14.75C3.65519 14.7212 3.60309 14.7055 3.54688 14.7031C2.53455 15.0197 1.52413 15.3427 0.515625 15.6719C0.820147 14.68 1.14306 13.6852 1.48438 12.6875C0.635622 11.4798 0.135622 10.1413 -0.015625 8.67188C-0.015625 8.21353 -0.015625 7.75522 -0.015625 7.29688C0.376275 4.16356 2.00128 1.92919 4.85938 0.59375C5.64638 0.271998 6.45888 0.0688728 7.29688 -0.015625ZM4.70312 3.67188C4.93253 3.66669 5.16169 3.67188 5.39062 3.6875C5.46981 3.70362 5.5375 3.74009 5.59375 3.79688C5.94044 4.52653 6.24772 5.27131 6.51562 6.03125C6.47581 6.20991 6.39769 6.37134 6.28125 6.51562C6.12816 6.66591 5.98234 6.82216 5.84375 6.98438C5.74419 7.10306 5.71294 7.2385 5.75 7.39062C6.51003 8.75472 7.61941 9.71828 9.07812 10.2812C9.221 10.309 9.35641 10.2881 9.48438 10.2188C9.72181 9.96056 9.93538 9.68453 10.125 9.39062C10.2288 9.23962 10.3694 9.14587 10.5469 9.10938C11.3118 9.40069 12.0462 9.75484 12.75 10.1719C12.8725 11.1822 12.461 11.8749 11.5156 12.25C11.0832 12.4368 10.6353 12.4889 10.1719 12.4062C8.40837 12.0482 6.90316 11.2305 5.65625 9.95312C5.05431 9.31103 4.51266 8.62353 4.03125 7.89062C3.69609 7.37494 3.47734 6.81244 3.375 6.20312C3.28012 5.30003 3.55616 4.53441 4.20312 3.90625C4.36069 3.80134 4.52738 3.72322 4.70312 3.67188Z" fill="white"/>
</svg>
