<svg width="24" height="24" viewBox="0 0 24 24" fill="none" xmlns="http://www.w3.org/2000/svg">
<g clip-path="url(#clip0_186_2457)">
<path d="M23.014 3.77602L18.416 8.37402C17.635 9.15502 16.369 9.15502 15.588 8.37402C14.807 7.59302 14.807 6.32702 15.588 5.54602L20.173 0.959023L19.881 0.811023C18.819 0.272023 17.681 -0.000976562 16.5 -0.000976562C12.364 -0.000976562 8.99997 3.36302 8.99997 7.49902C8.99997 8.45802 9.17797 9.38502 9.53097 10.266L0.918969 18.879C-0.249031 20.049 -0.249031 21.951 0.918969 23.121C1.50397 23.706 2.27197 23.998 3.03997 23.998C3.80797 23.998 4.57697 23.706 5.16197 23.121L13.793 14.49C14.658 14.829 15.566 15 16.501 15C20.637 15 24.001 11.636 24.001 7.50002C24.001 6.29202 23.718 5.13402 23.16 4.05802L23.014 3.77602Z" fill="#0E0E0E"/>
</g>
<defs>
<clipPath id="clip0_186_2457">
<rect width="24" height="24" fill="white"/>
</clipPath>
</defs>
</svg>
